<?xml version="1.0" encoding="UTF-8" standalone="no"?>
<svg height="48" width="48" xmlns="http://www.w3.org/2000/svg" xmlns:xlink="http://www.w3.org/1999/xlink">
  <defs>
    <linearGradient id="a">
      <stop offset="0" stop-color="#334545"/>
      <stop offset="1" stop-color="#536161"/>
    </linearGradient>
    <linearGradient id="b" gradientUnits="userSpaceOnUse" x1="-43" x2="-13" xlink:href="#a" y1="30" y2="10"/>
    <linearGradient id="c" gradientUnits="userSpaceOnUse" x1="7.778" x2="12.567" xlink:href="#a" y1="33.234" y2="33.941"/>
    <radialGradient id="d" cx="41" cy="7" gradientUnits="userSpaceOnUse" r="6">
      <stop offset="0" stop-color="#ffa92d"/>
      <stop offset="1" stop-color="#f74028"/>
    </radialGradient>
  </defs>
  <g>
    <path d="m40.03125 7.028125c-2.463176-.095122-3.89681.020858-4.8125.40625-.457845.1926959-.814003.4869204-1 .84375s-.191548.742313-.15625 1.09375c.07059.702874.934325 1.846496.9755 2.471875.04118.625379-.68322 1.164994-1.38175 1.78125v.03125c-.483983.483983-.839075.749477-1.15625 1.03125s-.599001.576116-.90625 1.03125l.8125.5625c.257486-.381419.458359-.584661.75-.84375s.671483-.577733 1.1875-1.09375c.891715-.798888 1.748091-1.744737 1.69425-2.5625-.05428-.824465-.926346-2.013733-.9755-2.503125-.02458-.244696-.000485-.4104155.0625-.53125.06298-.1208345.158804-.2445512.46875-.375.619892-.2608976 1.967639-.4367164 4.375-.34375z" fill="#b0b8b8"/>
    <rect fill="url(#c)" height="10" rx="1" transform="matrix(.70710678 -.70710678 .70710678 .70710678 0 0)" width="9" x="3.57" y="28.94"/>
    <rect fill="url(#b)" height="32" rx="21" transform="rotate(-90)" width="32" x="-45" y="3"/>
    <path d="m3.0253906 28.5c-.0051411.167553-.0253906.331155-.0253906.5 0 8.864 7.136 16 16 16s16-7.136 16-16c0-.168845-.02025-.332447-.025391-.5-.264755 8.628653-7.279454 15.5-15.974609 15.5s-15.7098545-6.871347-15.9746094-15.5z" opacity=".15"/>
    <path d="m41 2.9999997a1 4 0 0 0 -.853516 1.9375 4 1 45 0 0 -1.974609-.765625 4 1 45 0 0 .765625 1.9726562 4 1 0 0 0 -1.9375.8554688 4 1 0 0 0 1.9375.8535156 1 4 45 0 0 -.765625 1.9746094 1 4 45 0 0 1.972656-.765625 1 4 0 0 0 .855469 1.9375003 1 4 0 0 0 .853516-1.9375003 4 1 45 0 0 1.974609.765625 4 1 45 0 0 -.765625-1.9726562 4 1 0 0 0 1.9375-.8554688 4 1 0 0 0 -1.9375-.8535156 1 4 45 0 0 .765625-1.9746094 1 4 45 0 0 -1.972656.765625 1 4 0 0 0 -.855469-1.9375z" fill="url(#d)"/>
  </g>
</svg>